<svg xmlns="http://www.w3.org/2000/svg" xmlns:xlink="http://www.w3.org/1999/xlink" width="1080" zoomAndPan="magnify" viewBox="0 0 810 374.999991" height="500" preserveAspectRatio="xMidYMid meet" version="1.0"><defs><g/><clipPath id="b820c959a0"><path d="M 17 0.480469 L 215.238281 0.480469 L 215.238281 336.238281 L 17 336.238281 Z M 17 0.480469 " clip-rule="nonzero"/></clipPath><clipPath id="1fde9ffaa2"><rect x="0" width="216" y="0" height="337"/></clipPath><clipPath id="9275817db2"><rect x="0" width="610" y="0" height="375"/></clipPath></defs><g transform="matrix(1, 0, 0, 1, 1, 6)"><g clip-path="url(#1fde9ffaa2)"><g clip-path="url(#b820c959a0)"><path fill="#ff6600" d="M 109.570312 0.65625 L 108.347656 1.0625 C 107.878906 1.6875 107.878906 1.6875 107.4375 2.492188 L 106.9375 3.398438 L 106.414062 4.375 L 105.867188 5.378906 C 104.261719 8.363281 102.777344 11.410156 101.417969 14.515625 L 100.789062 15.921875 C 98.007812 22.441406 96.378906 29.535156 95.304688 36.523438 L 95.179688 37.332031 C 92.582031 54.492188 95.980469 71.90625 102.167969 87.933594 C 106.976562 100.121094 113.320312 111.628906 120.574219 122.519531 L 121.867188 124.46875 C 125.152344 129.425781 128.460938 134.363281 131.847656 139.253906 C 132.667969 140.445312 133.484375 141.640625 134.300781 142.835938 C 136.398438 145.910156 138.511719 148.972656 140.648438 152.019531 L 141.382812 153.070312 C 142.222656 154.265625 143.0625 155.460938 143.902344 156.65625 C 144.96875 158.175781 146.019531 159.707031 147.066406 161.242188 L 147.75 162.238281 C 158.648438 178.191406 168.769531 195.121094 172.871094 214.199219 L 173.054688 215.042969 C 174.144531 220.484375 174.53125 225.882812 174.503906 231.421875 L 174.5 232.359375 C 174.480469 237.410156 174.171875 242.285156 173.152344 247.238281 L 172.953125 248.265625 C 170.484375 260.777344 165.019531 272.597656 157.257812 282.699219 L 156.429688 283.8125 C 153.019531 288.246094 149.148438 292.449219 144.667969 295.808594 C 143.792969 296.566406 143.46875 297.15625 142.992188 298.1875 C 142.453125 298.332031 141.90625 298.46875 141.363281 298.59375 L 140.953125 299.816406 C 140.414062 299.972656 139.871094 300.105469 139.324219 300.222656 C 138.703125 300.570312 138.09375 300.933594 137.5 301.320312 L 136.46875 301.976562 L 135.402344 302.667969 C 134.699219 303.121094 134 303.570312 133.296875 304.019531 L 132.359375 304.625 C 131.589844 305.128906 131.589844 305.128906 130.765625 305.523438 L 130.765625 306.335938 L 129.925781 306.4375 C 128.855469 306.710938 128.207031 307.007812 127.273438 307.558594 C 126.183594 308.195312 125.460938 308.589844 124.242188 308.78125 L 124.242188 309.597656 L 121.390625 310.003906 L 121.390625 310.820312 L 120.234375 310.941406 C 118.152344 311.238281 116.203125 311.933594 114.207031 312.578125 C 109.753906 313.972656 105.21875 315.019531 100.605469 315.710938 L 99.65625 315.855469 C 84.519531 318.054688 68.191406 316.09375 53.921875 310.574219 L 52.511719 310.003906 L 51.238281 309.515625 C 47.757812 308.128906 44.425781 306.425781 41.097656 304.707031 L 39.914062 304.097656 C 33.488281 300.683594 27.589844 296.570312 22 291.917969 L 21.128906 291.257812 L 20.3125 291.257812 L 20.3125 290.441406 C 19.777344 289.78125 19.777344 289.78125 19.089844 289.21875 L 17.867188 289.21875 C 18.03125 290.339844 18.324219 290.917969 19 291.847656 L 19.929688 292.9375 C 21.144531 294.382812 22.339844 295.832031 23.496094 297.320312 C 28.167969 303.164062 33.535156 308.707031 39.46875 313.265625 L 40.132812 313.78125 C 55.230469 325.339844 72.308594 332.691406 91.203125 335.171875 C 109.855469 337.46875 129.089844 335.261719 146.582031 328.246094 C 150.332031 326.632812 153.992188 324.820312 157.664062 323.046875 L 157.664062 322.234375 L 161.332031 321.011719 L 161.332031 320.195312 L 162.554688 320.195312 L 162.554688 319.378906 L 164.59375 318.972656 L 164.59375 318.15625 L 167.039062 317.34375 L 167.039062 316.527344 L 168.234375 316.171875 L 169.484375 315.710938 L 169.890625 314.898438 L 171.113281 314.488281 L 173.152344 312.449219 C 173.691406 312.171875 174.234375 311.902344 174.78125 311.636719 C 175.335938 311.101562 175.878906 310.558594 176.414062 310.003906 C 177.210938 309.304688 178.011719 308.609375 178.820312 307.917969 C 179.820312 307.019531 180.761719 306.070312 181.710938 305.113281 L 182.671875 304.179688 C 184.808594 302.097656 186.75 299.933594 188.609375 297.601562 C 189.324219 296.722656 190.066406 295.863281 190.832031 295.027344 C 201.851562 282.523438 209.078125 265.957031 212.472656 249.765625 C 213.015625 247.03125 213.484375 244.289062 213.910156 241.53125 C 213.992188 241.019531 213.992188 241.019531 214.074219 240.492188 C 215.667969 229.816406 215.171875 218.324219 213.503906 207.703125 L 213.304688 206.4375 C 211.578125 195.949219 208.265625 185.914062 203.722656 176.320312 L 203.203125 175.207031 C 196.480469 160.832031 186.75 148.113281 177.152344 135.5625 C 175.789062 133.78125 174.441406 131.988281 173.101562 130.1875 C 170.890625 127.230469 168.625 124.3125 166.351562 121.402344 C 165.191406 119.914062 164.035156 118.417969 162.886719 116.917969 C 161.523438 115.140625 160.148438 113.375 158.761719 111.617188 C 154.433594 106.125 150.234375 100.535156 146.097656 94.894531 C 145.496094 94.070312 144.890625 93.25 144.28125 92.429688 C 137.601562 83.398438 131.179688 74.15625 125.875 64.238281 L 125.304688 63.179688 C 114.570312 43.164062 109.375 23.398438 109.570312 0.65625 " fill-opacity="1" fill-rule="nonzero"/></g><path fill="#ff6600" d="M 61.886719 59.753906 L 60.660156 59.753906 L 60.613281 60.902344 C 60.261719 68.757812 59.792969 76.484375 58.214844 84.210938 L 57.96875 85.4375 C 55.753906 96.101562 52.035156 106.253906 47.210938 116 L 46.554688 117.332031 C 43.21875 124.078125 39.496094 130.480469 35.390625 136.785156 L 34.585938 138.03125 C 32.039062 141.957031 29.46875 145.871094 26.882812 149.769531 C 14.6875 168.179688 14.6875 168.179688 10.910156 176.320312 C 10.496094 177.210938 10.066406 178.089844 9.636719 178.972656 C 3.066406 192.699219 0.339844 207.847656 1.359375 223.007812 C 2.558594 237.363281 7.1875 251.484375 15.316406 263.453125 C 22.953125 274.320312 32.632812 283.097656 43.953125 290.035156 L 44.675781 290.488281 C 53.464844 295.921875 63.476562 298.953125 73.449219 301.394531 L 74.53125 301.664062 C 76.332031 302.085938 77.953125 302.363281 79.816406 302.261719 L 79.410156 301.039062 C 78.515625 300.601562 78.515625 300.601562 77.320312 300.171875 C 70.144531 297.3125 64.214844 292.433594 59.03125 286.773438 L 58.625 285.957031 L 57.808594 285.957031 L 57.527344 285.300781 C 56.96875 284.285156 56.296875 283.429688 55.578125 282.53125 C 49.074219 274.273438 45.492188 263.890625 43.851562 253.605469 C 42.117188 241.488281 44.03125 229.175781 48.382812 217.773438 C 52.429688 207.777344 58.183594 198.613281 63.949219 189.542969 C 76.585938 169.613281 86.304688 148.628906 87.460938 124.738281 C 88.011719 109.761719 85.234375 95.011719 78.339844 81.636719 C 74.539062 74.460938 69.824219 67.648438 64.125 61.84375 L 63.503906 61.203125 C 62.988281 60.695312 62.4375 60.222656 61.886719 59.753906 " fill-opacity="1" fill-rule="nonzero"/></g></g><g transform="matrix(1, 0, 0, 1, 196, 0)"><g clip-path="url(#9275817db2)"><g fill="#ff6600" fill-opacity="1"><g transform="translate(0.637414, 325.933039)"><g><path d="M 35.109375 0 L 35.109375 -296.125 L 219.140625 -296.125 L 219.140625 -251.296875 L 84.1875 -251.296875 L 84.1875 -168.375 L 199.671875 -168.375 L 199.671875 -123.53125 L 84.1875 -123.53125 L 84.1875 0 Z M 35.109375 0 "/></g></g></g><g fill="#ff6600" fill-opacity="1"><g transform="translate(196.914079, 325.933039)"><g><path d="M 29.1875 0 L 29.1875 -211.515625 L 76.140625 -211.515625 L 76.140625 0 Z M 52.875 -251.71875 C 45.257812 -251.71875 38.703125 -254.46875 33.203125 -259.96875 C 27.703125 -265.46875 24.953125 -272.023438 24.953125 -279.640625 C 24.953125 -287.253906 27.703125 -293.738281 33.203125 -299.09375 C 38.703125 -304.445312 45.257812 -307.125 52.875 -307.125 C 60.488281 -307.125 67.046875 -304.445312 72.546875 -299.09375 C 78.046875 -293.738281 80.796875 -287.253906 80.796875 -279.640625 C 80.796875 -272.023438 78.046875 -265.46875 72.546875 -259.96875 C 67.046875 -254.46875 60.488281 -251.71875 52.875 -251.71875 Z M 52.875 -251.71875 "/></g></g></g><g fill="#ff6600" fill-opacity="1"><g transform="translate(266.285124, 325.933039)"><g><path d="M 26.234375 0 L 26.234375 -211.515625 L 73.609375 -211.515625 L 73.609375 -173.03125 C 82.066406 -186.28125 93.0625 -196.148438 106.59375 -202.640625 C 120.132812 -209.128906 134.097656 -212.375 148.484375 -212.375 L 148.484375 -167.109375 C 135.515625 -167.109375 123.316406 -165.34375 111.890625 -161.8125 C 100.472656 -158.289062 91.238281 -152.582031 84.1875 -144.6875 C 77.132812 -136.789062 73.609375 -126.351562 73.609375 -113.375 L 73.609375 0 Z M 26.234375 0 "/></g></g></g><g fill="#ff6600" fill-opacity="1"><g transform="translate(383.457293, 325.933039)"><g><path d="M 120.5625 5.078125 C 99.976562 5.078125 81.71875 0.351562 65.78125 -9.09375 C 49.84375 -18.539062 37.289062 -31.582031 28.125 -48.21875 C 18.96875 -64.863281 14.390625 -84.046875 14.390625 -105.765625 C 14.390625 -127.484375 19.039062 -146.660156 28.34375 -163.296875 C 37.644531 -179.929688 50.40625 -192.972656 66.625 -202.421875 C 82.84375 -211.867188 101.390625 -216.59375 122.265625 -216.59375 C 141.160156 -216.59375 158.222656 -211.726562 173.453125 -202 C 188.679688 -192.269531 200.738281 -178.238281 209.625 -159.90625 C 218.507812 -141.570312 222.953125 -119.71875 222.953125 -94.34375 L 63.453125 -94.34375 C 64.867188 -76.570312 71.425781 -62.609375 83.125 -52.453125 C 94.832031 -42.304688 108.722656 -37.234375 124.796875 -37.234375 C 137.773438 -37.234375 148.492188 -40.125 156.953125 -45.90625 C 165.410156 -51.6875 172.035156 -59.226562 176.828125 -68.53125 L 218.71875 -50.765625 C 212.789062 -39.484375 205.242188 -29.609375 196.078125 -21.140625 C 186.910156 -12.679688 176.050781 -6.195312 163.5 -1.6875 C 150.957031 2.820312 136.644531 5.078125 120.5625 5.078125 Z M 66.421875 -130.71875 L 171.75 -130.71875 C 170.90625 -140.875 167.945312 -149.265625 162.875 -155.890625 C 157.800781 -162.515625 151.597656 -167.519531 144.265625 -170.90625 C 136.929688 -174.289062 129.171875 -175.984375 120.984375 -175.984375 C 113.085938 -175.984375 105.117188 -174.359375 97.078125 -171.109375 C 89.046875 -167.867188 82.207031 -162.863281 76.5625 -156.09375 C 70.925781 -149.332031 67.546875 -140.875 66.421875 -130.71875 Z M 66.421875 -130.71875 "/></g></g></g></g></g></svg>