<svg xmlns="http://www.w3.org/2000/svg" xmlns:xlink="http://www.w3.org/1999/xlink" width="700" zoomAndPan="magnify" viewBox="0 0 525 809.999993" height="1080" preserveAspectRatio="xMidYMid meet" version="1.0"><defs><clipPath id="975d90da56"><path d="M 40 0.28125 L 505.480469 0.28125 L 505.480469 790.839844 L 40 790.839844 Z M 40 0.28125 " clip-rule="nonzero"/></clipPath><clipPath id="72db25a5e7"><rect x="0" width="506" y="0" height="791"/></clipPath></defs><g transform="matrix(1, 0, 0, 1, 11, 11)"><g clip-path="url(#72db25a5e7)"><g clip-path="url(#975d90da56)"><path fill="#ff6600" d="M 256.523438 0.414062 L 253.640625 1.371094 C 252.539062 2.839844 252.539062 2.839844 251.496094 4.742188 L 250.316406 6.871094 L 249.082031 9.175781 L 247.792969 11.542969 C 244.007812 18.574219 240.515625 25.75 237.316406 33.066406 L 235.828125 36.386719 C 229.273438 51.742188 225.4375 68.457031 222.910156 84.925781 L 222.609375 86.835938 C 216.492188 127.269531 224.496094 168.304688 239.074219 206.070312 C 250.40625 234.78125 265.363281 261.898438 282.453125 287.566406 L 285.492188 292.152344 C 293.234375 303.835938 301.035156 315.472656 309.015625 326.992188 C 310.953125 329.800781 312.871094 332.621094 314.792969 335.4375 C 319.734375 342.683594 324.71875 349.894531 329.753906 357.074219 L 331.484375 359.546875 C 333.460938 362.367188 335.441406 365.183594 337.417969 368 C 339.929688 371.582031 342.410156 375.1875 344.878906 378.804688 L 346.488281 381.152344 C 372.164062 418.746094 396.015625 458.636719 405.683594 503.59375 L 406.113281 505.582031 C 408.679688 518.398438 409.589844 531.125 409.523438 544.167969 L 409.519531 546.386719 C 409.472656 558.28125 408.75 569.765625 406.34375 581.445312 L 405.875 583.859375 C 400.054688 613.339844 387.175781 641.195312 368.886719 664.996094 L 366.933594 667.621094 C 358.902344 678.074219 349.78125 687.972656 339.222656 695.890625 C 337.164062 697.675781 336.398438 699.0625 335.273438 701.492188 C 334 701.839844 332.71875 702.160156 331.433594 702.453125 L 330.472656 705.332031 C 329.203125 705.699219 327.921875 706.019531 326.632812 706.292969 C 325.167969 707.105469 323.734375 707.96875 322.332031 708.875 L 319.902344 710.429688 L 317.386719 712.054688 C 315.734375 713.117188 314.082031 714.175781 312.429688 715.238281 L 310.214844 716.667969 C 308.402344 717.847656 308.402344 717.847656 306.464844 718.777344 L 306.464844 720.699219 L 304.480469 720.941406 C 301.960938 721.582031 300.433594 722.277344 298.238281 723.582031 C 295.667969 725.078125 293.964844 726.003906 291.097656 726.460938 L 291.097656 728.382812 L 284.375 729.34375 L 284.375 731.265625 L 281.652344 731.546875 C 276.746094 732.246094 272.148438 733.886719 267.449219 735.40625 C 256.953125 738.691406 246.269531 741.152344 235.394531 742.789062 L 233.164062 743.128906 C 197.496094 748.308594 159.015625 743.6875 125.398438 730.679688 L 122.070312 729.34375 L 119.070312 728.1875 C 110.867188 724.917969 103.019531 720.910156 95.179688 716.859375 L 92.390625 715.421875 C 77.246094 707.382812 63.34375 697.679688 50.171875 686.71875 L 48.121094 685.164062 L 46.199219 685.164062 L 46.199219 683.246094 C 44.9375 681.683594 44.9375 681.683594 43.316406 680.363281 L 40.4375 680.363281 C 40.824219 683.003906 41.515625 684.367188 43.113281 686.554688 L 45.300781 689.128906 C 48.160156 692.527344 50.972656 695.941406 53.703125 699.453125 C 64.707031 713.222656 77.355469 726.285156 91.335938 737.027344 L 92.90625 738.238281 C 128.472656 765.480469 168.71875 782.796875 213.246094 788.648438 C 257.195312 794.050781 302.515625 788.855469 343.738281 772.320312 C 352.566406 768.527344 361.195312 764.253906 369.847656 760.074219 L 369.847656 758.15625 L 378.492188 755.273438 L 378.492188 753.351562 L 381.371094 753.351562 L 381.371094 751.433594 L 386.175781 750.472656 L 386.175781 748.550781 L 391.9375 746.628906 L 391.9375 744.710938 L 394.757812 743.867188 L 397.699219 742.789062 L 398.660156 740.867188 L 401.542969 739.90625 L 406.34375 735.105469 C 407.617188 734.449219 408.894531 733.808594 410.183594 733.183594 C 411.484375 731.925781 412.765625 730.644531 414.027344 729.34375 C 415.902344 727.6875 417.792969 726.050781 419.695312 724.425781 C 422.058594 722.308594 424.277344 720.074219 426.511719 717.820312 L 428.777344 715.621094 C 433.804688 710.707031 438.382812 705.613281 442.765625 700.117188 C 444.449219 698.042969 446.195312 696.019531 448 694.050781 C 473.964844 664.585938 491 625.546875 498.992188 587.394531 C 500.269531 580.953125 501.375 574.488281 502.382812 568 C 502.574219 566.785156 502.574219 566.785156 502.765625 565.542969 C 506.519531 540.394531 505.355469 513.308594 501.421875 488.285156 L 500.953125 485.304688 C 496.890625 460.585938 489.078125 436.941406 478.371094 414.335938 L 477.148438 411.710938 C 461.308594 377.839844 438.378906 347.867188 415.765625 318.300781 C 412.558594 314.097656 409.382812 309.871094 406.222656 305.632812 C 401.015625 298.660156 395.675781 291.789062 390.320312 284.929688 C 387.582031 281.421875 384.859375 277.894531 382.152344 274.363281 C 378.941406 270.175781 375.695312 266.019531 372.429688 261.875 C 362.230469 248.925781 352.335938 235.765625 342.597656 222.464844 C 341.171875 220.527344 339.746094 218.589844 338.3125 216.660156 C 322.570312 195.382812 307.441406 173.597656 294.9375 150.230469 L 293.597656 147.738281 C 268.300781 100.578125 256.058594 53.996094 256.523438 0.414062 " fill-opacity="1" fill-rule="nonzero"/></g><path fill="#ff6600" d="M 144.160156 139.667969 L 141.277344 139.667969 L 141.160156 142.371094 C 140.335938 160.886719 139.226562 179.085938 135.515625 197.289062 L 134.929688 200.1875 C 129.714844 225.3125 120.953125 249.234375 109.585938 272.199219 L 108.039062 275.34375 C 100.171875 291.230469 91.398438 306.324219 81.734375 321.179688 L 79.832031 324.113281 C 73.828125 333.363281 67.777344 342.585938 61.679688 351.777344 C 32.941406 395.15625 32.941406 395.15625 24.046875 414.335938 C 23.070312 416.429688 22.054688 418.503906 21.042969 420.582031 C 5.5625 452.925781 -0.863281 488.625 1.539062 524.34375 C 4.359375 558.175781 15.273438 591.445312 34.421875 619.648438 C 52.417969 645.257812 75.230469 665.941406 101.902344 682.285156 L 103.609375 683.347656 C 124.324219 696.15625 147.910156 703.304688 171.410156 709.054688 L 173.953125 709.683594 C 178.195312 710.683594 182.023438 711.339844 186.414062 711.097656 L 185.453125 708.214844 C 183.347656 707.1875 183.347656 707.1875 180.53125 706.175781 C 163.625 699.433594 149.648438 687.9375 137.4375 674.601562 L 136.476562 672.679688 L 134.554688 672.679688 L 133.886719 671.132812 C 132.578125 668.738281 130.996094 666.722656 129.292969 664.601562 C 113.976562 645.148438 105.527344 620.675781 101.664062 596.441406 C 97.574219 567.894531 102.09375 538.882812 112.34375 512.015625 C 121.875 488.460938 135.441406 466.859375 149.019531 445.492188 C 178.800781 398.527344 201.703125 349.085938 204.421875 292.789062 C 205.722656 257.5 199.179688 222.742188 182.933594 191.230469 C 173.972656 174.320312 162.863281 158.269531 149.441406 144.589844 L 147.972656 143.078125 C 146.757812 141.882812 145.460938 140.765625 144.160156 139.667969 " fill-opacity="1" fill-rule="nonzero"/></g></g></svg>